# AST/ASF file generated using VICON BodyLanguage
# -----------------------------------------------
:version 1.10
:name VICON
:units
  mass 1.0
  length 0.45
  angle deg
:documentation
   .ast/.asf automatically generated from VICON data using
   VICON BodyBuilder and BodyLanguage model FoxedUp or BRILLIANT.MOD
:root
   order TX TY TZ RX RY RZ
   axis XYZ
   position 0 0 0  
   orientation 0 0 0 
:bonedata
  begin
     id 1 
     name lhipjoint
     direction 0.610259 -0.730986 0.305356 
     length 2.50941 
     axis 0 0 0  XYZ
  end
  begin
     id 2 
     name lfemur
     direction 0.34202 -0.939693 0  
     length 7.48822  
     axis 0 0 20  XYZ
    dof rx ry rz
    limits (-160.0 20.0)
           (-70.0 70.0)
           (-60.0 70.0)
  end
  begin
     id 3 
     name ltibia
     direction 0.34202 -0.939693 0   
     length 7.60141   
     axis 0 0 20   XYZ
    dof rx
    limits (-10.0 170.0)
  end
  begin
     id 4 
     name lfoot
     direction 0.0673488 -0.185039 0.980421   
     length 2.04049   
     axis -90 7.62852e-016 20   XYZ
    dof rx rz
    limits (-45.0 90.0)
           (-70.0 20.0)
  end
  begin
     id 5 
     name ltoes
     direction 1.5356e-011 -4.21729e-011 1   
     length 1.02897   
     axis -90 7.62852e-016 20   XYZ
    dof rx
    limits (-90.0 20.0)
  end
  begin
     id 6 
     name rhipjoint
     direction -0.57612 -0.754205 0.315056   
     length 2.43216  
     axis 0 0 0  XYZ 
  end
  begin
     id 7 
     name rfemur
     direction -0.34202 -0.939693 0   
     length 7.42799   
     axis 0 0 -20   XYZ
    dof rx ry rz
    limits (-160.0 20.0)
           (-70.0 70.0)
           (-70.0 60.0)
  end
  begin
     id 8 
     name rtibia
     direction -0.34202 -0.939693 0   
     length 7.69484   
     axis 0 0 -20   XYZ
    dof rx
    limits (-10.0 170.0)
 end
 begin
     id 9 
     name rfoot
     direction -0.111837 -0.30727 0.945028   
     length 2.15769  
     axis -90 -7.62852e-016 -20   XYZ
    dof rx rz
    limits (-45.0 90.0)
           (-20.0 70.0)
  end
  begin
     id 10 
     name rtoes
     direction -1.53539e-011 -4.21878e-011 1   
     length 1.07391   
     axis -90 -7.62852e-016 -20   XYZ
    dof rx
    limits (-90.0 20.0)
  end
  begin
     id 11 
     name lowerback
     direction 0.00552624 0.990109 -0.140195   
     length 2.12403   
     axis 0 0 0   XYZ
    dof rx ry rz
    limits (-20.0 45.0)
           (-30.0 30.0)
           (-30.0 30.0)
  end
  begin
     id 12 
     name upperback
     direction 0.00361898 0.999976 -0.00584723   
     length 2.13232   
     axis 0 0 0   XYZ
    dof rx ry rz
    limits (-20.0 45.0)
           (-30.0 30.0)
           (-30.0 30.0)
  end
  begin
     id 13 
     name thorax
     direction -0.000331275 0.998253 0.0590847   
     length 2.17688   
     axis 0 0 0   XYZ
    dof rx ry rz
    limits (-20.0 45.0)
           (-30.0 30.0)
           (-30.0 30.0)
  end
  begin
     id 14 
     name lowerneck
     direction -0.0561561 0.979832 0.19177   
     length 1.64159   
     axis 0 0 0   XYZ
    dof rx ry rz
    limits (-20.0 45.0)
           (-30.0 30.0)
           (-30.0 30.0)
  end
  begin
     id 15 
     name upperneck
     direction 0.0827153 0.979385 -0.184293   
     length 1.68939   
     axis 0 0 0   XYZ
    dof rx ry rz
    limits (-20.0 45.0)
           (-30.0 30.0)
           (-30.0 30.0)
  end
  begin
     id 16
     name head
     direction 0.0278583 0.995936 -0.0856488  
     length 1.70207  
     axis 0 0 0   XYZ
    dof rx ry rz
    limits (-20.0 45.0)
           (-30.0 30.0)
           (-30.0 30.0)
  end
  begin
     id 17 
     name lclavicle
     direction 0.950993 0.301131 -0.0702275  
     length 3.41652  
     axis 0 0 0   XYZ
    dof ry rz
    limits (-20.0 10.0)
           (0.0 20.0)
  end
  begin
     id 18 
     name lhumerus
     direction 1 -4.48981e-011 -3.9662e-029   
     length 5.32955   
     axis 180 -30 -90   XYZ
    dof rx ry rz
    limits (-60.0 90.0)
           (-90.0 90.0)
           (-90.0 90.0)
  end
  begin
     id 19
     name lradius
     direction 1 -4.48925e-011 -9.0549e-027   
     length 3.69232   
     axis 180 -30 -90   XYZ
    dof rx
    limits (-10.0 170.0)
  end
  begin
     id 20
     name lwrist
     direction 1 -4.49007e-011 -1.49005e-026   
     length 1.84616   
     axis 9.0955e-015 90 90   XYZ
    dof ry
    limits (-180.0 0.0)
 end
  begin
     id 21 
     name lhand
     direction 1 -4.49016e-011 -2.98023e-026   
     length 0.536598   
     axis 1.90115e-014 90 90   XYZ
    dof rx rz
    limits (-90.0 90.0)
           (-45.0 45.0)
  end
  begin
     id 22 
     name lfingers
     direction 1 -4.48924e-011 -5.9578e-026   
     length 0.432619   
     axis 3.80223e-014 90 90   XYZ
    dof rx
    limits (0.0 90.0)
  end
  begin
     id 23
     name lthumb
     direction 0.707107 -6.34947e-011 0.707107   
     length 0.621157   
     axis -90 45 -3.84942e-014   XYZ
    dof rx rz
    limits (-45.0 45.0)
           (-45.0 45.0)
  end
  begin
     id 24 
     name rclavicle
     direction -0.955495 0.276497 -0.102848   
     length 3.36357  
     axis 0 0 0   XYZ 
    dof ry rz
    limits (-10.0 20.0)
           (-20.0 0.0)
  end
  begin
     id 25 
     name rhumerus
     direction -1 -4.48961e-011 3.30983e-027  
     length 5.23431   
     axis 180 30 90   XYZ
    dof rx ry rz
    limits (-90.0 60.0)
           (-90.0 90.0)
           (-90.0 90.0)
  end
  begin
     id 26 
     name rradius
     direction -1 -4.48965e-011 -6.63263e-027   
     length 3.55301   
     axis 180 30 90   XYZ
    dof rx
    limits (-10.0 170.0)
  end
  begin
     id 27 
     name rwrist
     direction -1 -4.48942e-011 -1.48958e-026   
     length 1.77651   
     axis 9.0955e-015 -90 -90   XYZ
    dof ry
    limits (-180.0 0.0)
  end
  begin
     id 28
     name rhand
     direction -1 -4.48977e-011 -2.97966e-026   
     length 0.772522   
     axis 1.90115e-014 -90 -90   XYZ
    dof rx rz
    limits (-90.0 90.0)
           (-45.0 45.0)
  end
  begin
     id 29
     name rfingers
     direction -1 -4.49135e-011 -5.96389e-026   
     length 0.622827   
     axis 3.80223e-014 -90 -90   XYZ
    dof rx
    limits (0.0 90.0)
  end
  begin
     id 30
     name rthumb
     direction -0.707107 -6.34969e-011 0.707107   
     length 0.894259   
     axis -90 -45 3.84942e-014   XYZ
    dof rx rz
    limits (-45.0 45.0)
           (-45.0 45.0)
  end
:hierarchy
  begin
    root lhipjoint rhipjoint lowerback
    lhipjoint lfemur
    lfemur ltibia
    ltibia lfoot
    lfoot ltoes
    rhipjoint rfemur
    rfemur rtibia
    rtibia rfoot
    rfoot rtoes
    lowerback upperback
    upperback thorax
    thorax lowerneck lclavicle rclavicle
    lowerneck upperneck
    upperneck head
    lclavicle lhumerus
    lhumerus lradius
    lradius lwrist
    lwrist lhand lthumb
    lhand lfingers
    rclavicle rhumerus
    rhumerus rradius
    rradius rwrist
    rwrist rhand rthumb
    rhand rfingers
  end

#!OML:ASF F:\VICON\USERDATA\INSTALL\rory3\rory3.ASF
:FULLY-SPECIFIED
:DEGREES
436
root 13.9286 18.4057 1.14914 -1.12581 3.97674 2.32867
lowerback 10.6742 -0.723731 -0.567977
upperback 2.79565 -0.964981 1.39801
thorax -3.03584 -0.474585 1.89697
lowerneck -12.0273 -2.54126 -11.6671
upperneck 42.2277 -1.86365 3.88483
head 17.9478 -2.08499 3.60118
rclavicle 1.04362e-014 2.38542e-015
rhumerus -34.3336 -10.7024 -78.6525
rradius 37.4633
rwrist 4.34103
rhand -13.9609 7.57136
rfingers 7.12502
rthumb 12.1668 -22.0548
lclavicle 1.04362e-014 2.38542e-015
lhumerus -29.2547 -1.08221 88.8282
lradius 31.8564
lwrist -2.86709
lhand -16.5146 28.6077
lfingers 7.12502
lthumb 9.70367 58.3642
rfemur -11.4102 -6.0837 25.8745
rtibia 33.1493
rfoot -5.52299 -5.51571
rtoes 4.63398
lfemur -9.10736 -3.76436 -17.0956
ltibia 46.6235
lfoot -2.39184 -10.1267
ltoes -17.6666
437
root 13.9488 18.4136 1.06829 -1.16223 4.34235 2.5269
lowerback 10.5775 -0.888226 -0.81666
upperback 2.69164 -1.21024 1.36518
thorax -3.07712 -0.594221 2.03419
lowerneck -12.0119 -2.4433 -11.591
upperneck 42.3389 -1.69614 3.78271
head 17.9868 -2.02428 3.57278
rclavicle 1.70955e-014 -1.98785e-014
rhumerus -35.0287 -10.6905 -78.5663
rradius 37.2881
rwrist 4.36828
rhand -14.2032 7.12883
rfingers 7.12502
rthumb 11.9332 -22.5111
lclavicle 1.70955e-014 -1.98785e-014
lhumerus -29.0884 -1.34404 89.0831
lradius 32.0403
lwrist -3.14009
lhand -16.5559 28.8503
lfingers 7.12502
lthumb 9.66382 58.6086
rfemur -11.6006 -6.31649 25.5534
rtibia 33.0693
rfoot -5.18872 -5.54649
rtoes 4.82633
lfemur -8.04924 -3.63517 -17.2904
ltibia 46.5605
lfoot -2.09802 -10.4902
ltoes -18.3226
438
root 13.9695 18.4214 0.98618 -1.19552 4.50018 2.75326
lowerback 10.4272 -0.973782 -1.07961
upperback 2.6451 -1.35372 1.29568
thorax -3.03227 -0.664399 2.12569
lowerneck -11.9675 -2.3923 -11.5609
upperneck 42.3608 -1.61574 3.73655
head 17.9769 -1.99521 3.55993
rclavicle 2.33572e-014 -2.14687e-014
rhumerus -35.7761 -10.8296 -78.5156
rradius 37.3195
rwrist 4.30827
rhand -14.6243 6.56614
rfingers 7.12502
rthumb 11.5271 -23.0969
lclavicle 2.33572e-014 -2.14687e-014
lhumerus -28.8649 -1.92759 89.3899
lradius 32.3964
lwrist -2.86627
lhand -16.632 29.04
lfingers 7.12502
lthumb 9.59039 58.8017
rfemur -11.8104 -6.47247 25.2071
rtibia 32.9795
rfoot -4.97328 -5.52163
rtoes 4.53294
lfemur -6.99386 -3.40623 -17.5319
ltibia 46.3964
lfoot -1.60924 -10.8246
ltoes -18.0538
439
root 13.9897 18.421 0.894785 -1.26135 4.57258 2.92449
lowerback 10.2792 -1.03893 -1.32189
upperback 2.68808 -1.46596 1.26483
thorax -2.89566 -0.720981 2.23981
lowerneck -12.0257 -2.33025 -11.6391
upperneck 42.3075 -1.49645 3.75669
head 17.9479 -1.95545 3.60268
rclavicle 1.09332e-015 8.74653e-015
rhumerus -36.3449 -11.1455 -78.3985
rradius 37.2587
rwrist 4.32146
rhand -14.85 6.78739
rfingers 7.12502
rthumb 11.3095 -22.8877
lclavicle 1.09332e-015 8.74653e-015
lhumerus -28.3309 -2.28512 89.6374
lradius 32.5245
lwrist -2.66901
lhand -16.6761 28.7256
lfingers 7.12502
lthumb 9.5479 58.4892
rfemur -12.0324 -6.55759 24.9716
rtibia 32.8491
rfoot -4.68241 -5.55216
rtoes 3.02601
lfemur -5.95403 -3.07948 -17.6895
ltibia 46.1408
lfoot -0.92661 -11.2802
ltoes -17.1263
440
root 14.0091 18.4171 0.80439 -1.28376 4.65289 2.89991
lowerback 10.0666 -1.11911 -1.39272
upperback 2.7252 -1.57688 1.3008
thorax -2.73162 -0.778241 2.32426
lowerneck -12.1453 -2.27653 -11.6997
upperneck 42.2694 -1.36875 3.73522
head 17.9433 -1.91551 3.6249
rclavicle 1.90833e-014 -3.97569e-015
rhumerus -36.8059 -11.4821 -78.2437
rradius 36.9852
rwrist 4.232
rhand -15.081 7.33883
rfingers 7.12502
rthumb 11.0866 -22.3483
lclavicle 1.90833e-014 -3.97569e-015
lhumerus -27.7488 -2.34722 89.8277
lradius 32.5318
lwrist -2.88658
lhand -16.8857 28.5855
lfingers 7.12502
lthumb 9.34565 58.3584
rfemur -12.3231 -6.59845 24.9769
rtibia 32.698
rfoot -4.02625 -5.6146
rtoes 0.819003
lfemur -4.87092 -2.70332 -17.5863
ltibia 45.7997
lfoot -0.242403 -11.7387
ltoes -17.01
441
root 14.026 18.4192 0.718709 -1.35134 4.90361 2.89982
lowerback 9.95595 -1.23261 -1.472
upperback 2.68215 -1.73344 1.33138
thorax -2.7041 -0.855873 2.41691
lowerneck -12.0216 -2.24512 -11.803
upperneck 42.2552 -1.29261 3.70137
head 17.8961 -1.9059 3.6391
rclavicle 1.98785e-014 -2.38542e-014
rhumerus -37.4464 -11.8034 -78.0009
rradius 36.7225
rwrist 4.11054
rhand -15.3246 7.41948
rfingers 7.12502
rthumb 10.8517 -22.2801
lclavicle 1.98785e-014 -2.38542e-014
lhumerus -27.4165 -2.87393 90.142
lradius 32.6468
lwrist -2.70032
lhand -17.0046 28.4936
lfingers 7.12502
lthumb 9.2309 58.2715
rfemur -12.5955 -6.69971 24.9237
rtibia 32.5711
rfoot -4.11002 -5.75126
rtoes 1.16752
lfemur -3.75266 -2.48473 -17.4935
ltibia 45.3533
lfoot 0.763786 -12.2232
ltoes -15.8607
442
root 14.0451 18.4282 0.631034 -1.41564 5.22344 3.05003
lowerback 9.85123 -1.38682 -1.66058
upperback 2.64487 -1.95673 1.30237
thorax -2.66793 -0.966491 2.51659
lowerneck -11.8501 -2.15117 -11.8166
upperneck 42.2593 -1.14045 3.63236
head 17.8346 -1.85654 3.63417
rclavicle 1.0635e-014 -6.36111e-015
rhumerus -38.0532 -12.2132 -77.7309
rradius 36.4607
rwrist 4.27481
rhand -15.5131 7.16519
rfingers 7.12502
rthumb 10.6698 -22.5439
lclavicle 1.0635e-014 -6.36111e-015
lhumerus -27.1076 -3.0167 90.3426
lradius 32.7418
lwrist -2.69309
lhand -17.1398 27.9497
lfingers 7.12502
lthumb 9.10044 57.7334
rfemur -12.8193 -6.8729 24.6625
rtibia 32.5281
rfoot -4.17997 -5.83631
rtoes 2.07861
lfemur -2.68856 -2.40215 -17.6157
ltibia 44.7628
lfoot 1.96467 -12.7954
ltoes -14.1809
443
root 14.0669 18.4271 0.535924 -1.44057 5.51056 3.21887
lowerback 9.77619 -1.56488 -1.87931
upperback 2.57977 -2.21472 1.27504
thorax -2.67245 -1.09344 2.63994
lowerneck -11.7279 -2.0184 -11.8391
upperneck 42.2948 -0.92711 3.582
head 17.7975 -1.78319 3.6516
rclavicle 4.37326e-015 -4.77083e-015
rhumerus -38.6305 -12.4945 -77.4939
rradius 36.1242
rwrist 4.48498
rhand -15.6739 7.45572
rfingers 7.12502
rthumb 10.5148 -22.2613
lclavicle 4.37326e-015 -4.77083e-015
lhumerus -26.8281 -2.80753 90.4793
lradius 32.8858
lwrist -2.88089
lhand -17.3128 28.2173
lfingers 7.12502
lthumb 8.9335 58.0082
rfemur -13.0959 -6.92269 24.3925
rtibia 32.5649
rfoot -4.22963 -6.00485
rtoes 2.54612
lfemur -1.59188 -2.38874 -17.7934
ltibia 44.0361
lfoot 2.92364 -13.4199
ltoes -14.9673
444
root 14.09 18.4083 0.437416 -1.46188 5.72187 3.40791
lowerback 9.68223 -1.70185 -2.1571
upperback 2.55286 -2.42329 1.25179
thorax -2.62544 -1.19682 2.79284
lowerneck -11.7991 -1.94148 -11.8367
upperneck 42.3959 -0.752768 3.47257
head 17.8571 -1.73285 3.63388
rclavicle -6.59965e-014 3.97569e-015
rhumerus -39.1121 -12.7819 -77.2433
rradius 35.7116
rwrist 4.55327
rhand -15.6032 8.01997
rfingers 7.12502
rthumb 10.5829 -21.6936
lclavicle -6.59965e-014 3.97569e-015
lhumerus -26.5216 -2.90447 90.6712
lradius 33.1362
lwrist -2.83955
lhand -17.4848 28.8152
lfingers 7.12502
lthumb 8.7675 58.6131
rfemur -13.4898 -6.90029 24.1097
rtibia 32.6752
rfoot -4.15522 -6.21032
rtoes 2.34183
lfemur -0.41873 -2.34577 -18.0105
ltibia 43.1968
lfoot 3.825 -14.2662
ltoes -17.4163
